<svg width="655" height="624" viewBox="0 0 655 624" fill="none" xmlns="http://www.w3.org/2000/svg">
<path fill-rule="evenodd" clip-rule="evenodd" d="M650 134C650 153.882 633.882 170 614 170H536C516.118 170 500 186.118 500 206V268C500 287.882 516.118 304 536 304H614C633.882 304 650 320.118 650 340V433C650 452.882 633.882 469 614 469H536C516.118 469 500 485.118 500 505V583C500 602.882 483.882 619 464 619H371C351.118 619 335 602.882 335 583V505C335 485.118 318.882 469 299 469H206C186.118 469 170 485.118 170 505V583C170 602.882 153.882 619 134 619H41C21.1177 619 5 602.882 5 583V490C5 470.118 21.1177 454 41 454H134C153.882 454 170 437.882 170 418V355C170 335.118 153.882 319 134 319H41C21.1177 319 5 302.882 5 283V190C5 170.118 21.1178 154 41 154H449C468.882 154 485 137.882 485 118V41C485 21.1178 501.118 5 521 5H650V134ZM335 418C335 437.882 351.118 454 371 454H449C468.882 454 485 437.882 485 418V355C485 335.118 468.882 319 449 319H371C351.118 319 335 335.118 335 355V418Z" stroke="black" stroke-width="10"/>
</svg>
