<svg width="674" height="674" viewBox="0 0 674 674" fill="none" xmlns="http://www.w3.org/2000/svg">
<path d="M337.002 0C404.682 0 459.548 54.8654 459.548 122.545C459.548 190.225 404.682 245.09 337.002 245.09H245.092V336.999C245.092 404.679 190.227 459.545 122.546 459.545C54.8658 459.545 0 404.679 0 336.999C0 269.319 54.8658 214.454 122.546 214.454H214.456V122.545C214.456 54.8654 269.322 0 337.002 0Z" fill="#249E6F"/>
<path d="M551.454 214.455C619.134 214.455 674 269.321 674 337.001C674 404.681 619.134 459.546 551.454 459.546H459.544V551.455C459.544 619.135 404.678 674 336.998 674C269.318 674 214.452 619.135 214.452 551.455C214.452 483.775 269.318 428.91 336.998 428.91H428.908V337.001C428.908 269.321 483.773 214.455 551.454 214.455Z" fill="#249E6F"/>
</svg>
