<svg width="48" height="48" viewBox="0 0 48 48" fill="none" xmlns="http://www.w3.org/2000/svg">
<mask id="mask0_894_1327" style="mask-type:alpha" maskUnits="userSpaceOnUse" x="0" y="0" width="48" height="48">
<rect width="48" height="48" fill="#D9D9D9"/>
</mask>
<g mask="url(#mask0_894_1327)">
<path d="M10.6008 39.3996V20.8496L6.45078 24.0496L5.80078 23.1996L10.6008 19.4996V14.6496H11.7008V18.5996L24.0008 9.24961L42.2008 23.1996L41.5508 24.0496L37.4008 20.8496V39.3996H10.6008ZM11.7008 38.2996H21.1508V28.2996H26.8508V38.2996H36.3008V20.0496L24.0008 10.6496L11.7008 20.0496V38.2996ZM10.6008 11.9996C10.6008 10.9663 10.9181 10.0829 11.5528 9.34961C12.1874 8.61628 13.1534 8.24961 14.4508 8.24961C15.4598 8.24961 16.1704 7.99128 16.5828 7.47461C16.9948 6.95794 17.2008 6.33294 17.2008 5.59961H18.3008C18.3008 6.63294 17.9904 7.51628 17.3698 8.24961C16.7488 8.98294 15.7758 9.34961 14.4508 9.34961C13.4508 9.34961 12.7424 9.60561 12.3258 10.1176C11.9091 10.6296 11.7008 11.2569 11.7008 11.9996H10.6008Z" fill="#1C1B1F"/>
</g>
</svg>
