<svg width="48" height="48" viewBox="0 0 48 48" fill="none" xmlns="http://www.w3.org/2000/svg">
<mask id="mask0_894_1354" style="mask-type:alpha" maskUnits="userSpaceOnUse" x="0" y="0" width="48" height="48">
<rect width="48" height="48" fill="#D9D9D9"/>
</mask>
<g mask="url(#mask0_894_1354)">
<path d="M23.6016 23.9004C23.5016 23.8004 23.4516 23.6671 23.4516 23.5004V6.70039C23.4516 6.53372 23.5016 6.40039 23.6016 6.30039C23.7016 6.20039 23.8349 6.15039 24.0016 6.15039C24.1682 6.15039 24.3016 6.20039 24.4016 6.30039C24.5016 6.40039 24.5516 6.53372 24.5516 6.70039V23.5004C24.5516 23.6671 24.5016 23.8004 24.4016 23.9004C24.3016 24.0004 24.1682 24.0504 24.0016 24.0504C23.8349 24.0504 23.7016 24.0004 23.6016 23.9004ZM18.0016 38.2254C16.1349 37.4087 14.5016 36.3087 13.1016 34.9254C11.7016 33.5421 10.6016 31.9087 9.80156 30.0254C9.00156 28.1421 8.60156 26.1504 8.60156 24.0504C8.60156 22.0837 8.96823 20.2004 9.70156 18.4004C10.4349 16.6004 11.4849 14.9837 12.8516 13.5504C12.9516 13.4504 13.0766 13.4087 13.2266 13.4254C13.3766 13.4421 13.5182 13.5004 13.6516 13.6004C13.7516 13.7004 13.7849 13.8254 13.7516 13.9754C13.7182 14.1254 13.6349 14.2504 13.5016 14.3504C12.2682 15.6504 11.3266 17.1337 10.6766 18.8004C10.0266 20.4671 9.70156 22.2171 9.70156 24.0504C9.70156 28.0171 11.0932 31.3921 13.8766 34.1754C16.6599 36.9587 20.0349 38.3504 24.0016 38.3504C27.9682 38.3504 31.3432 36.9587 34.1266 34.1754C36.9099 31.3921 38.3016 28.0171 38.3016 24.0504C38.3016 22.2171 37.9766 20.4754 37.3266 18.8254C36.6766 17.1754 35.7349 15.6837 34.5016 14.3504C34.4016 14.2504 34.3349 14.1171 34.3016 13.9504C34.2682 13.7837 34.3016 13.6504 34.4016 13.5504C34.5349 13.4171 34.6766 13.3587 34.8266 13.3754C34.9766 13.3921 35.1182 13.4671 35.2516 13.6004C36.5849 15.0004 37.6099 16.6004 38.3266 18.4004C39.0432 20.2004 39.4016 22.0837 39.4016 24.0504C39.4016 26.1504 39.0016 28.1421 38.2016 30.0254C37.4016 31.9087 36.3016 33.5421 34.9016 34.9254C33.5016 36.3087 31.8682 37.4087 30.0016 38.2254C28.1349 39.0421 26.1349 39.4504 24.0016 39.4504C21.8682 39.4504 19.8682 39.0421 18.0016 38.2254Z" fill="#1C1B1F"/>
</g>
</svg>
