<svg width="48" height="48" viewBox="0 0 48 48" fill="none" xmlns="http://www.w3.org/2000/svg">
<mask id="mask0_894_1318" style="mask-type:alpha" maskUnits="userSpaceOnUse" x="0" y="0" width="48" height="48">
<rect width="48" height="48" fill="#D9D9D9"/>
</mask>
<g mask="url(#mask0_894_1318)">
<path d="M9.50156 23.2496L15.1516 25.6496C15.8516 24.2496 16.6266 22.8746 17.4766 21.5246C18.3266 20.1746 19.2682 18.8829 20.3016 17.6496L16.8016 16.9996C16.5349 16.9329 16.2766 16.9413 16.0266 17.0246C15.7766 17.1079 15.5516 17.2496 15.3516 17.4496L9.50156 23.2496ZM16.0016 26.3496L21.9516 32.2996C23.7182 31.4329 25.4099 30.4496 27.0266 29.3496C28.6432 28.2496 30.1516 26.9996 31.5516 25.5996C33.7516 23.3996 35.3932 21.1413 36.4766 18.8246C37.5599 16.5079 38.2516 13.4663 38.5516 9.69961C34.7516 9.99961 31.7099 10.6829 29.4266 11.7496C27.1432 12.8163 24.9016 14.4496 22.7016 16.6496C21.3016 18.0496 20.0516 19.5663 18.9516 21.1996C17.8516 22.8329 16.8682 24.5496 16.0016 26.3496ZM26.8016 18.8996C26.8016 18.1996 27.0516 17.5996 27.5516 17.0996C28.0516 16.5996 28.6599 16.3496 29.3766 16.3496C30.0932 16.3496 30.7016 16.5996 31.2016 17.0996C31.7016 17.5996 31.9516 18.1996 31.9516 18.8996C31.9516 19.5996 31.7016 20.1913 31.2016 20.6746C30.7016 21.1579 30.0932 21.3996 29.3766 21.3996C28.6599 21.3996 28.0516 21.1579 27.5516 20.6746C27.0516 20.1913 26.8016 19.5996 26.8016 18.8996ZM24.9516 38.7496L30.8016 32.9496C31.0016 32.7496 31.1349 32.5163 31.2016 32.2496C31.2682 31.9829 31.2849 31.7329 31.2516 31.4996L30.5516 27.9996C29.3182 28.9996 28.0349 29.9246 26.7016 30.7746C25.3682 31.6246 23.9849 32.4163 22.5516 33.1496L24.9516 38.7496ZM39.7016 8.59961C39.7016 12.2996 39.0932 15.5746 37.8766 18.4246C36.6599 21.2746 34.8516 23.8829 32.4516 26.2496C32.2849 26.4163 32.1266 26.5829 31.9766 26.7496C31.8266 26.9163 31.6682 27.0663 31.5016 27.1996L32.3016 31.2496C32.3682 31.7163 32.3349 32.1579 32.2016 32.5746C32.0682 32.9913 31.8516 33.3496 31.5516 33.6496L24.5516 40.6496L21.5016 33.3996L14.8016 26.7496L7.60156 23.5996L14.5516 16.6496C14.8849 16.3496 15.2599 16.1246 15.6766 15.9746C16.0932 15.8246 16.5349 15.7996 17.0016 15.8996L21.1016 16.6996C21.2682 16.5663 21.4182 16.4163 21.5516 16.2496C21.6849 16.0829 21.8349 15.9329 22.0016 15.7996C24.4016 13.3996 27.0182 11.5996 29.8516 10.3996C32.6849 9.19961 35.9682 8.59961 39.7016 8.59961ZM10.8516 32.3996C11.5182 31.6996 12.3182 31.3663 13.2516 31.3996C14.1849 31.4329 15.0016 31.7829 15.7016 32.4496C16.3682 33.1163 16.7016 33.9163 16.7016 34.8496C16.7016 35.7829 16.3682 36.5996 15.7016 37.2996C15.0349 37.9329 14.0432 38.4746 12.7266 38.9246C11.4099 39.3746 9.95156 39.6496 8.35156 39.7496C8.45156 38.1496 8.72656 36.6829 9.17656 35.3496C9.62656 34.0163 10.1849 33.0329 10.8516 32.3996ZM11.6016 33.2496C11.1682 33.7163 10.7766 34.4079 10.4266 35.3246C10.0766 36.2413 9.8349 37.2829 9.70156 38.4496C10.8682 38.2829 11.9099 38.0246 12.8266 37.6746C13.7432 37.3246 14.4349 36.9163 14.9016 36.4496C15.3682 36.0163 15.6016 35.4829 15.6016 34.8496C15.6016 34.2163 15.3682 33.6663 14.9016 33.1996C14.4349 32.7329 13.8849 32.5079 13.2516 32.5246C12.6182 32.5413 12.0682 32.7829 11.6016 33.2496Z" fill="#1C1B1F"/>
</g>
</svg>
