<svg width="25" height="24" viewBox="0 0 25 24" fill="none" xmlns="http://www.w3.org/2000/svg">
<rect x="3" y="1" width="19" height="3" fill="#386BF6"/>
<rect x="3" y="19" width="19" height="4" fill="#386BF6"/>
<rect x="1.25" y="5.25" width="22.5" height="13" rx="1.75" stroke="#080A30" stroke-width="2.5"/>
<rect x="2.75" y="0.75" width="19.5" height="4.5" rx="0.75" stroke="#080A30" stroke-width="1.5"/>
<rect x="2.75" y="18.75" width="19.5" height="4" rx="0.75" stroke="#080A30" stroke-width="1.5"/>
<circle cx="5.75" cy="2.75" r="0.75" fill="#080A30"/>
<circle cx="10.25" cy="2.75" r="0.75" fill="#080A30"/>
<circle cx="14.75" cy="2.75" r="0.75" fill="#080A30"/>
<circle cx="19.25" cy="2.75" r="0.75" fill="#080A30"/>
<circle cx="5.75" cy="20.75" r="0.75" fill="#080A30"/>
<circle cx="10.25" cy="20.75" r="0.75" fill="#080A30"/>
<circle cx="14.75" cy="20.75" r="0.75" fill="#080A30"/>
<circle cx="19.25" cy="20.75" r="0.75" fill="#080A30"/>
<path d="M4 9.25L21 9.25" stroke="#080A30" stroke-width="1.5" stroke-linecap="round"/>
<line x1="19.25" y1="9.75" x2="19.25" y2="11.25" stroke="#080A30" stroke-width="1.5" stroke-linecap="round"/>
<line x1="5.25" y1="9.75" x2="5.25" y2="11.25" stroke="#080A30" stroke-width="1.5" stroke-linecap="round"/>
</svg>
