<svg width="297" height="235" viewBox="0 0 297 235" fill="none" xmlns="http://www.w3.org/2000/svg">
<path d="M295.048 0C295.344 0 295.629 0.117552 295.84 0.327148C296.05 0.536819 296.169 0.821646 296.173 1.11816C296.258 7.8459 296.164 14.5997 295.683 21.3428C294.627 37.0272 291.146 52.5895 285.619 67.3408C277.036 88.3418 262.226 105.228 247.665 121.718C231.741 139.88 211.061 153.304 189.995 164.352C160.908 179.537 131.002 192.866 100.528 204.938C95.421 206.936 90.2792 208.868 85.1152 210.688C64.8407 217.872 44.0244 223.471 23.0352 227.81C21.7073 228.087 20.3786 228.359 19.0498 228.63C33.1524 228.672 47.2549 229.215 61.3574 230.26C62.4074 230.338 63.4578 230.418 64.5078 230.501C64.7946 230.524 65.0697 230.646 65.2725 230.854C65.4751 231.063 65.5889 231.339 65.5889 231.626C65.5889 231.913 65.4751 232.189 65.2725 232.397C65.0697 232.606 64.7946 232.728 64.5078 232.751C63.4578 232.834 62.4074 232.914 61.3574 232.992C46.6576 234.081 31.9577 234.626 17.2578 234.626C13.0579 234.626 8.8581 234.226 4.65821 233.426C3.60821 233.226 2.55782 233.001 1.50782 232.751C1.47902 232.744 1.45132 232.733 1.42286 232.725C1.34671 232.729 1.26973 232.737 1.19141 232.74C0.918165 232.725 0.644574 232.64 0.424811 232.469C0.205049 232.298 0.0575259 232.059 0.0136778 231.795C-0.0301774 231.53 0.0325634 231.257 0.185553 231.024C0.338513 230.792 0.57034 230.623 0.824225 230.521C1.54071 230.122 2.50462 229.426 3.35352 228.782C4.51929 227.897 5.67669 226.971 6.83692 226.052C8.97267 224.346 10.7948 222.374 12.8447 220.256C14.9631 218.057 17.0883 215.749 19.2666 213.475C24.9102 207.571 30.6931 201.926 36.3906 196.169C39.6341 192.895 43.0317 189.643 46.4522 186.646C46.4809 186.619 46.5094 186.593 46.5371 186.567C47.3113 185.847 47.9032 185.238 48.4131 184.338C48.5608 184.09 48.7925 183.898 49.0703 183.81C49.348 183.721 49.6471 183.743 49.9043 183.871C50.1613 184 50.3583 184.226 50.4541 184.501C50.55 184.776 50.5343 185.077 50.4248 185.344C50.0184 186.433 49.243 187.558 48.5195 188.425C48.4927 188.458 48.4651 188.49 48.4375 188.523C45.3895 192.045 42.5337 195.512 39.625 199.082C34.4686 205.423 28.9917 211.481 23.5674 217.474C21.4617 219.794 19.3917 222.108 17.1572 224.428C16.6015 225.004 16.0125 225.58 15.3936 226.144C17.6619 225.535 19.9291 224.926 22.1934 224.31C42.8155 218.747 63.1398 212.486 83.1201 205.135C88.1951 203.276 93.2765 201.333 98.3418 199.351C128.567 187.381 158.501 174.179 187.387 159.391C208.374 148.581 228.339 135.925 244.111 118.458C258.733 102.403 273.672 85.7176 282.138 66.0088C287.834 51.6461 291.557 36.5377 292.958 21.1172C293.586 14.4876 293.841 7.80905 293.923 1.11816C293.927 0.821645 294.045 0.536819 294.256 0.327148C294.466 0.117528 294.751 1.61616e-05 295.048 0Z" fill="white"/>
</svg>
