<svg width="27" height="27" viewBox="0 0 27 27" fill="none" xmlns="http://www.w3.org/2000/svg">
<path d="M5.76281 20.13C6.86781 19.285 8.10281 18.6187 9.46781 18.1312C10.8328 17.6437 12.2628 17.4 13.7578 17.4C15.2528 17.4 16.6828 17.6437 18.0478 18.1312C19.4128 18.6187 20.6478 19.285 21.7528 20.13C22.5111 19.2417 23.1016 18.2342 23.5241 17.1075C23.9466 15.9808 24.1578 14.7783 24.1578 13.5C24.1578 10.6183 23.1449 8.16458 21.1191 6.13875C19.0932 4.11292 16.6395 3.1 13.7578 3.1C10.8761 3.1 8.4224 4.11292 6.39656 6.13875C4.37073 8.16458 3.35781 10.6183 3.35781 13.5C3.35781 14.7783 3.56906 15.9808 3.99156 17.1075C4.41406 18.2342 5.00448 19.2417 5.76281 20.13ZM13.7578 14.8C12.4795 14.8 11.4016 14.3612 10.5241 13.4837C9.64656 12.6062 9.20781 11.5283 9.20781 10.25C9.20781 8.97167 9.64656 7.89375 10.5241 7.01625C11.4016 6.13875 12.4795 5.7 13.7578 5.7C15.0361 5.7 16.1141 6.13875 16.9916 7.01625C17.8691 7.89375 18.3078 8.97167 18.3078 10.25C18.3078 11.5283 17.8691 12.6062 16.9916 13.4837C16.1141 14.3612 15.0361 14.8 13.7578 14.8ZM13.7578 26.5C11.9595 26.5 10.2695 26.1587 8.68781 25.4762C7.10615 24.7937 5.73031 23.8675 4.56031 22.6975C3.39031 21.5275 2.46406 20.1517 1.78156 18.57C1.09906 16.9883 0.757812 15.2983 0.757812 13.5C0.757812 11.7017 1.09906 10.0117 1.78156 8.43C2.46406 6.84833 3.39031 5.4725 4.56031 4.3025C5.73031 3.1325 7.10615 2.20625 8.68781 1.52375C10.2695 0.84125 11.9595 0.5 13.7578 0.5C15.5561 0.5 17.2461 0.84125 18.8278 1.52375C20.4095 2.20625 21.7853 3.1325 22.9553 4.3025C24.1253 5.4725 25.0516 6.84833 25.7341 8.43C26.4166 10.0117 26.7578 11.7017 26.7578 13.5C26.7578 15.2983 26.4166 16.9883 25.7341 18.57C25.0516 20.1517 24.1253 21.5275 22.9553 22.6975C21.7853 23.8675 20.4095 24.7937 18.8278 25.4762C17.2461 26.1587 15.5561 26.5 13.7578 26.5ZM13.7578 23.9C14.9061 23.9 15.9895 23.7321 17.0078 23.3962C18.0261 23.0604 18.9578 22.5783 19.8028 21.95C18.9578 21.3217 18.0261 20.8396 17.0078 20.5037C15.9895 20.1679 14.9061 20 13.7578 20C12.6095 20 11.5261 20.1679 10.5078 20.5037C9.48948 20.8396 8.55781 21.3217 7.71281 21.95C8.55781 22.5783 9.48948 23.0604 10.5078 23.3962C11.5261 23.7321 12.6095 23.9 13.7578 23.9ZM13.7578 12.2C14.3211 12.2 14.787 12.0158 15.1553 11.6475C15.5236 11.2792 15.7078 10.8133 15.7078 10.25C15.7078 9.68667 15.5236 9.22083 15.1553 8.8525C14.787 8.48417 14.3211 8.3 13.7578 8.3C13.1945 8.3 12.7286 8.48417 12.3603 8.8525C11.992 9.22083 11.8078 9.68667 11.8078 10.25C11.8078 10.8133 11.992 11.2792 12.3603 11.6475C12.7286 12.0158 13.1945 12.2 13.7578 12.2Z" fill="#656E77"/>
</svg>
