<svg width="22" height="27" viewBox="0 0 22 27" fill="none" xmlns="http://www.w3.org/2000/svg">
<path d="M5.6215 22.9C5.6215 23.4523 6.06921 23.9 6.6215 23.9H15.3801C15.9324 23.9 16.3801 23.4523 16.3801 22.9V20C16.3801 18.57 15.8534 17.3458 14.7999 16.3275C13.7465 15.3092 12.4801 14.8 11.0008 14.8C9.5215 14.8 8.25512 15.3092 7.20167 16.3275C6.14822 17.3458 5.6215 18.57 5.6215 20V22.9ZM11.0008 12.2C12.4801 12.2 13.7465 11.6908 14.7999 10.6725C15.8534 9.65417 16.3801 8.43 16.3801 7V4.1C16.3801 3.54771 15.9324 3.1 15.3801 3.1H6.6215C6.06921 3.1 5.6215 3.54772 5.6215 4.1V7C5.6215 8.43 6.14822 9.65417 7.20167 10.6725C8.25512 11.6908 9.5215 12.2 11.0008 12.2ZM1.24219 26.5C0.689904 26.5 0.242188 26.0523 0.242188 25.5V24.9C0.242188 24.3477 0.689903 23.9 1.24219 23.9H1.93184C2.48413 23.9 2.93184 23.4523 2.93184 22.9V20C2.93184 18.6783 3.25124 17.4379 3.89003 16.2787C4.26023 15.607 4.71511 15.0134 5.25468 14.4981C5.79757 13.9796 5.79757 13.0204 5.25468 12.5019C4.71511 11.9866 4.26023 11.393 3.89003 10.7212C3.25124 9.56208 2.93184 8.32167 2.93184 7V4.1C2.93184 3.54771 2.48413 3.1 1.93184 3.1H1.24219C0.689904 3.1 0.242188 2.65228 0.242188 2.1V1.5C0.242188 0.947716 0.689903 0.5 1.24219 0.5H20.7594C21.3117 0.5 21.7594 0.947715 21.7594 1.5V2.1C21.7594 2.65228 21.3117 3.1 20.7594 3.1H20.0698C19.5175 3.1 19.0698 3.54772 19.0698 4.1V7C19.0698 8.32167 18.7504 9.56208 18.1116 10.7212C17.7414 11.393 17.2865 11.9866 16.7469 12.5019C16.204 13.0204 16.204 13.9796 16.7469 14.4981C17.2865 15.0134 17.7414 15.607 18.1116 16.2787C18.7504 17.4379 19.0698 18.6783 19.0698 20V22.9C19.0698 23.4523 19.5175 23.9 20.0698 23.9H20.7594C21.3117 23.9 21.7594 24.3477 21.7594 24.9V25.5C21.7594 26.0523 21.3117 26.5 20.7594 26.5H1.24219Z" fill="#656E77"/>
</svg>
