<svg width="400" height="400" viewBox="0 0 400 400" fill="none" xmlns="http://www.w3.org/2000/svg">
<path d="M200.501 99C220.684 99 237.046 115.362 237.046 135.545C237.046 155.729 220.684 172.091 200.501 172.091H173.091V199.5C173.091 219.683 156.729 236.045 136.546 236.045C116.362 236.045 100 219.683 100 199.5C100 179.316 116.362 162.954 136.546 162.954H163.955V135.545C163.955 115.362 180.317 99 200.501 99Z" fill="#3BA672"/>
<path d="M264.454 162.955C284.638 162.955 301 179.317 301 199.5C301 219.684 284.638 236.046 264.454 236.046H237.045V263.455C237.045 283.638 220.683 300 200.499 300C180.316 300 163.954 283.638 163.954 263.455C163.954 243.271 180.316 226.909 200.499 226.909H227.909V199.5C227.909 179.317 244.271 162.955 264.454 162.955Z" fill="#3BA672"/>
</svg>
