<svg width="400" height="400" viewBox="0 0 400 400" fill="none" xmlns="http://www.w3.org/2000/svg">
<g clip-path="url(#paint0_diamond_919_1615_clip_path)" data-figma-skip-parse="true"><g transform="matrix(2.4874e-09 -0.222 0.222 2.49607e-09 200 297)"><rect x="0" y="0" width="878.378" height="310.811" fill="url(#paint0_diamond_919_1615)" opacity="1" shape-rendering="crispEdges"/><rect x="0" y="0" width="878.378" height="310.811" transform="scale(1 -1)" fill="url(#paint0_diamond_919_1615)" opacity="1" shape-rendering="crispEdges"/><rect x="0" y="0" width="878.378" height="310.811" transform="scale(-1 1)" fill="url(#paint0_diamond_919_1615)" opacity="1" shape-rendering="crispEdges"/><rect x="0" y="0" width="878.378" height="310.811" transform="scale(-1)" fill="url(#paint0_diamond_919_1615)" opacity="1" shape-rendering="crispEdges"/></g></g><path d="M257.867 158.203C263.463 158.203 268 153.966 268 148.74V112.463C268 107.237 263.463 103 257.867 103H143.153C133.99 103 129.533 113.457 136.19 119.338L177.252 155.615C179.134 157.277 181.625 158.203 184.215 158.203H257.867Z" data-figma-gradient-fill="{&#34;type&#34;:&#34;GRADIENT_DIAMOND&#34;,&#34;stops&#34;:[{&#34;color&#34;:{&#34;r&#34;:1.0,&#34;g&#34;:0.41578945517539978,&#34;b&#34;:0.0,&#34;a&#34;:1.0},&#34;position&#34;:0.0},{&#34;color&#34;:{&#34;r&#34;:0.0,&#34;g&#34;:0.0,&#34;b&#34;:0.0,&#34;a&#34;:1.0},&#34;position&#34;:1.0}],&#34;stopsVar&#34;:[{&#34;color&#34;:{&#34;r&#34;:1.0,&#34;g&#34;:0.41578945517539978,&#34;b&#34;:0.0,&#34;a&#34;:1.0},&#34;position&#34;:0.0},{&#34;color&#34;:{&#34;r&#34;:0.0,&#34;g&#34;:0.0,&#34;b&#34;:0.0,&#34;a&#34;:1.0},&#34;position&#34;:1.0}],&#34;transform&#34;:{&#34;m00&#34;:4.9748036872188095e-06,&#34;m01&#34;:443.99996948242188,&#34;m02&#34;:-21.999990463256836,&#34;m10&#34;:-443.99996948242188,&#34;m11&#34;:4.9921409299713559e-06,&#34;m12&#34;:518.99993896484375},&#34;opacity&#34;:1.0,&#34;blendMode&#34;:&#34;NORMAL&#34;,&#34;visible&#34;:true}"/>
<g clip-path="url(#paint1_diamond_919_1615_clip_path)" data-figma-skip-parse="true"><g transform="matrix(2.4874e-09 -0.222 0.222 2.49607e-09 200 297)"><rect x="0" y="0" width="878.378" height="310.811" fill="url(#paint1_diamond_919_1615)" opacity="1" shape-rendering="crispEdges"/><rect x="0" y="0" width="878.378" height="310.811" transform="scale(1 -1)" fill="url(#paint1_diamond_919_1615)" opacity="1" shape-rendering="crispEdges"/><rect x="0" y="0" width="878.378" height="310.811" transform="scale(-1 1)" fill="url(#paint1_diamond_919_1615)" opacity="1" shape-rendering="crispEdges"/><rect x="0" y="0" width="878.378" height="310.811" transform="scale(-1)" fill="url(#paint1_diamond_919_1615)" opacity="1" shape-rendering="crispEdges"/></g></g><path d="M257.867 227.602C263.463 227.602 268 223.365 268 218.138V181.862C268 176.635 263.463 172.398 257.867 172.398H143.153C133.99 172.398 129.533 182.855 136.19 188.737L177.252 225.013C179.134 226.675 181.625 227.602 184.215 227.602H257.867Z" data-figma-gradient-fill="{&#34;type&#34;:&#34;GRADIENT_DIAMOND&#34;,&#34;stops&#34;:[{&#34;color&#34;:{&#34;r&#34;:1.0,&#34;g&#34;:0.41578945517539978,&#34;b&#34;:0.0,&#34;a&#34;:1.0},&#34;position&#34;:0.0},{&#34;color&#34;:{&#34;r&#34;:0.0,&#34;g&#34;:0.0,&#34;b&#34;:0.0,&#34;a&#34;:1.0},&#34;position&#34;:1.0}],&#34;stopsVar&#34;:[{&#34;color&#34;:{&#34;r&#34;:1.0,&#34;g&#34;:0.41578945517539978,&#34;b&#34;:0.0,&#34;a&#34;:1.0},&#34;position&#34;:0.0},{&#34;color&#34;:{&#34;r&#34;:0.0,&#34;g&#34;:0.0,&#34;b&#34;:0.0,&#34;a&#34;:1.0},&#34;position&#34;:1.0}],&#34;transform&#34;:{&#34;m00&#34;:4.9748036872188095e-06,&#34;m01&#34;:443.99996948242188,&#34;m02&#34;:-21.999990463256836,&#34;m10&#34;:-443.99996948242188,&#34;m11&#34;:4.9921409299713559e-06,&#34;m12&#34;:518.99993896484375},&#34;opacity&#34;:1.0,&#34;blendMode&#34;:&#34;NORMAL&#34;,&#34;visible&#34;:true}"/>
<g clip-path="url(#paint2_diamond_919_1615_clip_path)" data-figma-skip-parse="true"><g transform="matrix(2.4874e-09 -0.222 0.222 2.49607e-09 200 297)"><rect x="0" y="0" width="878.378" height="310.811" fill="url(#paint2_diamond_919_1615)" opacity="1" shape-rendering="crispEdges"/><rect x="0" y="0" width="878.378" height="310.811" transform="scale(1 -1)" fill="url(#paint2_diamond_919_1615)" opacity="1" shape-rendering="crispEdges"/><rect x="0" y="0" width="878.378" height="310.811" transform="scale(-1 1)" fill="url(#paint2_diamond_919_1615)" opacity="1" shape-rendering="crispEdges"/><rect x="0" y="0" width="878.378" height="310.811" transform="scale(-1)" fill="url(#paint2_diamond_919_1615)" opacity="1" shape-rendering="crispEdges"/></g></g><path d="M183.067 297C187.07 297 190.315 293.969 190.315 290.231V251.26C190.315 246.034 185.778 241.797 180.182 241.797H143.153C133.99 241.797 129.533 252.254 136.19 258.135L178.086 295.148C179.432 296.337 181.214 297 183.067 297Z" data-figma-gradient-fill="{&#34;type&#34;:&#34;GRADIENT_DIAMOND&#34;,&#34;stops&#34;:[{&#34;color&#34;:{&#34;r&#34;:1.0,&#34;g&#34;:0.41578945517539978,&#34;b&#34;:0.0,&#34;a&#34;:1.0},&#34;position&#34;:0.0},{&#34;color&#34;:{&#34;r&#34;:0.0,&#34;g&#34;:0.0,&#34;b&#34;:0.0,&#34;a&#34;:1.0},&#34;position&#34;:1.0}],&#34;stopsVar&#34;:[{&#34;color&#34;:{&#34;r&#34;:1.0,&#34;g&#34;:0.41578945517539978,&#34;b&#34;:0.0,&#34;a&#34;:1.0},&#34;position&#34;:0.0},{&#34;color&#34;:{&#34;r&#34;:0.0,&#34;g&#34;:0.0,&#34;b&#34;:0.0,&#34;a&#34;:1.0},&#34;position&#34;:1.0}],&#34;transform&#34;:{&#34;m00&#34;:4.9748036872188095e-06,&#34;m01&#34;:443.99996948242188,&#34;m02&#34;:-21.999990463256836,&#34;m10&#34;:-443.99996948242188,&#34;m11&#34;:4.9921409299713559e-06,&#34;m12&#34;:518.99993896484375},&#34;opacity&#34;:1.0,&#34;blendMode&#34;:&#34;NORMAL&#34;,&#34;visible&#34;:true}"/>
<defs>
<clipPath id="paint0_diamond_919_1615_clip_path"><path d="M257.867 158.203C263.463 158.203 268 153.966 268 148.74V112.463C268 107.237 263.463 103 257.867 103H143.153C133.99 103 129.533 113.457 136.19 119.338L177.252 155.615C179.134 157.277 181.625 158.203 184.215 158.203H257.867Z"/></clipPath><clipPath id="paint1_diamond_919_1615_clip_path"><path d="M257.867 227.602C263.463 227.602 268 223.365 268 218.138V181.862C268 176.635 263.463 172.398 257.867 172.398H143.153C133.99 172.398 129.533 182.855 136.19 188.737L177.252 225.013C179.134 226.675 181.625 227.602 184.215 227.602H257.867Z"/></clipPath><clipPath id="paint2_diamond_919_1615_clip_path"><path d="M183.067 297C187.07 297 190.315 293.969 190.315 290.231V251.26C190.315 246.034 185.778 241.797 180.182 241.797H143.153C133.99 241.797 129.533 252.254 136.19 258.135L178.086 295.148C179.432 296.337 181.214 297 183.067 297Z"/></clipPath><linearGradient id="paint0_diamond_919_1615" x1="0" y1="0" x2="500" y2="500" gradientUnits="userSpaceOnUse">
<stop stop-color="#FF6A00"/>
<stop offset="1"/>
</linearGradient>
<linearGradient id="paint1_diamond_919_1615" x1="0" y1="0" x2="500" y2="500" gradientUnits="userSpaceOnUse">
<stop stop-color="#FF6A00"/>
<stop offset="1"/>
</linearGradient>
<linearGradient id="paint2_diamond_919_1615" x1="0" y1="0" x2="500" y2="500" gradientUnits="userSpaceOnUse">
<stop stop-color="#FF6A00"/>
<stop offset="1"/>
</linearGradient>
</defs>
</svg>
