<svg width="400" height="400" viewBox="0 0 400 400" fill="none" xmlns="http://www.w3.org/2000/svg">
<path d="M133.706 146.346C138.668 137.752 151.072 137.752 156.034 146.346L217.994 253.664C222.956 262.258 216.754 273 206.83 273H82.9101C72.9867 273 66.7846 262.258 71.7463 253.664L133.706 146.346Z" fill="#3C5AC7"/>
<path d="M156.739 189.058L130.334 234.857H183.144L194.293 254.195H95.4753L144.884 168.496L156.739 189.058Z" fill="white"/>
<path d="M181.431 146.336C176.469 137.742 182.672 127 192.595 127L316.515 127C326.439 127 332.641 137.742 327.679 146.336L265.719 253.654C260.757 262.248 248.353 262.248 243.391 253.654L181.431 146.336Z" fill="#3C5AC7"/>
<path d="M229.927 147.758L256.388 193.524L282.793 147.79L305.114 147.803L255.705 233.382L206.192 147.743L229.927 147.758Z" fill="white"/>
</svg>
