<svg width="400" height="400" viewBox="0 0 400 400" fill="none" xmlns="http://www.w3.org/2000/svg">
<g clip-path="url(#clip0_919_1618)">
<path d="M116 115L285 284H116V115Z" fill="#1A3EBE"/>
<path d="M188.549 123.178C224.101 123.178 252.922 151.999 252.922 187.551C252.922 223.103 224.101 251.924 188.549 251.924C152.997 251.924 124.176 223.103 124.176 187.551V123.178H188.549Z" fill="#E1E7FF" stroke="#1A3EBE" stroke-width="16.5"/>
<path d="M182.15 115C186.157 115 189.405 118.248 189.405 122.255C189.405 126.262 186.157 129.51 182.15 129.51H140.77L193.741 182.481C196.574 185.314 196.574 189.908 193.741 192.742C190.908 195.575 186.314 195.575 183.481 192.742L130.511 139.771V181.149C130.511 185.156 127.263 188.404 123.256 188.404C119.249 188.404 116.001 185.156 116.001 181.149V125.261V125.259V115H182.15Z" fill="#1A3EBE"/>
</g>
<defs>
<clipPath id="clip0_919_1618">
<rect width="169" height="169" fill="white" transform="translate(116 115)"/>
</clipPath>
</defs>
</svg>
