<svg width="400" height="400" viewBox="0 0 400 400" fill="none" xmlns="http://www.w3.org/2000/svg">
<g clip-path="url(#clip0_919_1621)">
<path d="M141.995 141.934C142.571 141.931 143.148 141.929 143.725 141.927C145.562 141.92 147.399 141.919 149.237 141.918C149.55 141.918 149.863 141.918 150.186 141.918C159.444 141.916 168.651 141.998 177.871 142.891C178.791 142.98 179.712 143.064 180.633 143.148C197.46 144.7 214.147 147.181 230.659 150.649C230.951 150.71 231.243 150.772 231.544 150.835C234.291 151.414 237.029 152.008 239.747 152.7C240.121 152.793 240.496 152.887 240.882 152.983C241.529 153.148 242.175 153.32 242.817 153.504C245.079 154.081 247.205 153.999 249.516 153.852C252.329 153.68 255.136 153.66 257.953 153.663C258.31 153.663 258.31 153.663 258.675 153.663C260.144 153.664 261.614 153.668 263.084 153.672C264.352 153.676 265.62 153.677 266.888 153.679C269.356 153.682 271.824 153.688 274.292 153.695C274.081 155.422 273.788 156.978 273.25 158.649C272.845 159.91 272.591 160.814 272.591 162.141C272.844 162.234 273.097 162.327 273.358 162.423C278.329 164.255 283.269 166.116 288.098 168.275C288.94 168.649 289.785 169.016 290.632 169.382C300.066 173.51 308.854 178.768 316.458 185.531C316.714 185.754 316.969 185.976 317.233 186.206C322.766 191.222 326.569 197.939 326.837 205.282C326.937 212.518 324.38 218.122 319.074 223.336C301.801 238.943 272.231 238.397 250.148 238.808C248.465 244.597 246.781 250.386 245.047 256.35C242.733 256.404 240.418 256.457 238.033 256.512C237.327 256.529 236.621 256.546 235.894 256.564C230.443 256.688 224.995 256.692 219.543 256.675C218.921 254.145 218.301 251.615 217.681 249.084C217.393 247.909 217.105 246.735 216.816 245.56C216.538 244.427 216.26 243.294 215.983 242.16C215.877 241.727 215.771 241.295 215.664 240.862C215.515 240.257 215.367 239.652 215.219 239.046C215.092 238.529 215.092 238.529 214.963 238.001C214.782 237.183 214.782 237.183 214.782 236.534C214.351 236.542 213.92 236.551 213.475 236.56C211.672 236.559 209.93 236.35 208.147 236.107C207.652 236.042 207.652 236.042 207.146 235.976C206.099 235.839 205.053 235.699 204.007 235.559C202.957 235.419 201.907 235.28 200.857 235.142C200.206 235.056 199.556 234.97 198.905 234.882C198.609 234.843 198.312 234.804 198.007 234.763C197.749 234.729 197.491 234.694 197.225 234.658C196.273 234.571 195.335 234.573 194.379 234.584C194.316 234.847 194.253 235.109 194.188 235.379C193.593 237.851 192.997 240.322 192.401 242.793C192.095 244.064 191.789 245.334 191.483 246.605C191.188 247.831 190.893 249.057 190.597 250.283C190.484 250.751 190.371 251.219 190.259 251.687C190.101 252.342 189.943 252.996 189.785 253.651C189.695 254.024 189.605 254.397 189.513 254.781C189.278 255.7 189.278 255.7 188.938 256.675C183.154 256.958 177.387 257.041 171.595 257.02C170.797 257.018 169.999 257.017 169.2 257.016C167.278 257.012 165.356 257.007 163.434 257C162.717 255.235 162.107 253.476 161.58 251.651C161.466 251.259 161.466 251.259 161.349 250.859C161.099 250.005 160.851 249.15 160.603 248.294C160.43 247.697 160.256 247.099 160.082 246.501C159.719 245.253 159.357 244.005 158.995 242.756C158.532 241.156 158.066 239.556 157.599 237.956C157.24 236.724 156.882 235.492 156.525 234.259C156.354 233.669 156.182 233.079 156.01 232.489C155.77 231.666 155.532 230.843 155.295 230.019C155.187 229.654 155.187 229.654 155.078 229.281C154.763 228.18 154.593 227.291 154.593 226.138C154.261 226.061 153.93 225.985 153.588 225.906C150.323 225.144 147.096 224.295 143.881 223.356C143.643 223.287 143.405 223.218 143.159 223.146C122.55 217.132 100.455 209.623 84.5417 195.277C84.2629 195.031 83.9841 194.786 83.6968 194.533C78.0625 189.401 74.0975 182.733 73.8227 175.201C73.7232 167.964 76.2803 162.361 81.5861 157.146C96.658 143.528 122.434 141.982 141.995 141.934ZM128.557 168.374C128.134 168.417 127.71 168.46 127.274 168.504C113.673 169.497 113.673 169.497 101.884 175.135C102.904 176.457 104.06 177.468 105.412 178.465C105.622 178.62 105.832 178.776 106.048 178.936C108.203 180.51 110.438 181.927 112.766 183.257C112.981 183.38 113.196 183.503 113.418 183.63C121.482 188.196 130.184 191.526 138.95 194.627C139.283 194.745 139.616 194.863 139.959 194.984C140.783 195.275 141.609 195.561 142.436 195.845C142.776 195.962 142.776 195.962 143.123 196.082C144.053 196.392 144.757 196.576 145.751 196.576C145.18 193.543 144.318 190.598 143.455 187.632C143.296 187.085 143.138 186.538 142.98 185.99C142.65 184.85 142.319 183.71 141.988 182.57C141.562 181.107 141.139 179.644 140.716 178.18C140.39 177.053 140.064 175.926 139.737 174.799C139.58 174.26 139.424 173.72 139.268 173.18C139.05 172.429 138.832 171.678 138.613 170.927C138.549 170.703 138.484 170.48 138.418 170.25C138.081 169.092 138.081 169.092 137.59 167.988C134.551 167.937 131.579 168.067 128.557 168.374ZM166.155 167.988C166.351 168.889 166.547 169.79 166.743 170.691C166.807 170.983 166.87 171.275 166.935 171.575C167.3 173.247 167.664 174.918 168.03 176.59C168.189 177.318 168.348 178.046 168.507 178.775C168.59 179.152 168.672 179.53 168.757 179.919C169.271 182.272 169.781 184.626 170.289 186.981C170.688 188.833 171.089 190.685 171.491 192.537C171.739 193.676 171.985 194.815 172.229 195.954C172.504 197.237 172.783 198.519 173.062 199.802C173.186 200.383 173.186 200.383 173.312 200.977C173.428 201.507 173.428 201.507 173.547 202.048C173.614 202.357 173.68 202.666 173.749 202.985C173.926 203.779 173.926 203.779 174.656 204.373C175.525 204.576 176.371 204.749 177.249 204.9C178.085 205.049 178.921 205.198 179.757 205.347C180.874 201.469 181.855 197.565 182.812 193.648C182.97 193.003 183.128 192.358 183.286 191.712C183.615 190.37 183.943 189.028 184.271 187.686C184.691 185.966 185.113 184.247 185.535 182.527C185.861 181.2 186.186 179.872 186.51 178.544C186.665 177.909 186.821 177.274 186.977 176.64C187.194 175.757 187.409 174.874 187.624 173.991C187.689 173.73 187.753 173.469 187.82 173.2C188.092 172.073 188.258 171.101 188.258 169.938C180.897 169.076 173.561 168.375 166.155 167.988ZM222.263 175.46C222.687 177.782 223.171 180.081 223.733 182.376C223.809 182.689 223.885 183.001 223.963 183.323C224.211 184.344 224.46 185.364 224.709 186.383C224.883 187.097 225.056 187.811 225.23 188.524C225.592 190.013 225.955 191.502 226.318 192.99C226.784 194.9 227.248 196.81 227.713 198.72C228.07 200.19 228.428 201.661 228.787 203.131C228.958 203.835 229.13 204.54 229.301 205.245C229.54 206.226 229.779 207.207 230.019 208.188C230.09 208.48 230.161 208.772 230.234 209.072C230.332 209.472 230.332 209.472 230.432 209.88C230.488 210.112 230.545 210.344 230.603 210.582C230.745 211.118 230.922 211.645 231.105 212.169C231.778 212.169 232.451 212.169 233.145 212.169C234.129 207.822 235.111 203.474 236.09 199.126C236.609 196.825 237.13 194.525 237.655 192.225C237.976 190.817 238.295 189.408 238.613 188C238.765 187.329 238.918 186.658 239.072 185.988C239.286 185.054 239.497 184.12 239.707 183.186C239.771 182.909 239.836 182.633 239.902 182.348C240.249 180.846 240.249 180.846 239.946 179.358C239.098 179.072 238.298 178.854 237.426 178.658C237.168 178.597 236.91 178.536 236.644 178.472C236.093 178.343 235.541 178.215 234.989 178.089C234.164 177.901 233.341 177.707 232.518 177.512C229.119 176.715 225.71 176.039 222.263 175.46ZM264.77 187.155C261.612 197.856 261.612 197.856 258.522 208.575C258.427 208.907 258.332 209.238 258.234 209.579C258.151 209.874 258.068 210.169 257.982 210.473C257.913 210.718 257.844 210.963 257.772 211.216C257.593 211.896 257.593 211.896 257.629 212.819C270.623 213.063 287.338 212.087 298.776 205.672C290.875 196.383 276.911 191.16 265.45 187.155C265.226 187.155 265.001 187.155 264.77 187.155ZM203.901 193.977C203.415 195.948 202.931 197.92 202.448 199.892C202.283 200.563 202.118 201.234 201.953 201.904C201.715 202.868 201.48 203.831 201.244 204.795C201.169 205.096 201.095 205.396 201.018 205.706C200.95 205.985 200.882 206.265 200.812 206.553C200.752 206.799 200.691 207.045 200.629 207.298C200.468 207.996 200.468 207.996 200.5 208.921C201.421 209.085 202.342 209.247 203.263 209.408C203.522 209.454 203.78 209.501 204.047 209.549C205.492 209.799 206.845 209.949 208.321 209.895C207.19 204.563 205.889 199.271 204.581 193.977C204.356 193.977 204.132 193.977 203.901 193.977Z" fill="#FF0000"/>
<path d="M192.339 154.345C200.418 154.345 208.498 154.345 216.823 154.345C218.482 160.29 218.482 160.29 219.182 162.953C219.268 163.282 219.354 163.61 219.443 163.948C220.123 166.562 220.737 169.187 221.303 171.826C221.642 173.376 222.04 174.89 222.515 176.407C223.517 179.734 224.311 183.108 225.127 186.479C225.301 187.191 225.474 187.904 225.648 188.616C226.008 190.098 226.368 191.581 226.728 193.064C227.189 194.967 227.652 196.869 228.116 198.771C228.473 200.237 228.83 201.703 229.185 203.169C229.356 203.871 229.527 204.573 229.698 205.275C229.936 206.251 230.172 207.228 230.408 208.204C230.479 208.494 230.55 208.784 230.624 209.083C230.687 209.349 230.751 209.614 230.817 209.887C230.873 210.118 230.929 210.348 230.986 210.586C231.105 211.195 231.105 211.195 231.105 212.17C227.376 212.261 223.739 212.023 220.032 211.65C219.137 211.56 218.242 211.474 217.347 211.389C214.318 211.096 211.315 210.758 208.321 210.22C207.952 208.771 207.583 207.322 207.215 205.872C207.09 205.381 206.965 204.89 206.84 204.399C206.481 202.988 206.123 201.576 205.768 200.164C205.607 199.527 205.446 198.889 205.284 198.252C205.191 197.878 205.098 197.504 205.002 197.118C204.92 196.792 204.838 196.466 204.754 196.13C204.581 195.277 204.581 195.277 204.581 193.977C204.356 193.977 204.132 193.977 203.901 193.977C203.859 194.4 203.817 194.822 203.774 195.257C203.593 196.813 203.257 198.299 202.858 199.816C202.79 200.079 202.723 200.341 202.653 200.612C202.44 201.44 202.225 202.267 202.009 203.094C201.863 203.66 201.717 204.225 201.571 204.791C201.216 206.168 200.859 207.545 200.5 208.921C197.304 208.761 194.21 208.34 191.068 207.792C190.322 207.663 189.576 207.536 188.83 207.41C185.791 206.891 182.771 206.311 179.757 205.672C180.35 202.151 181.236 198.688 182.08 195.216C182.243 194.544 182.405 193.872 182.568 193.2C182.908 191.794 183.25 190.388 183.591 188.983C184.024 187.199 184.456 185.415 184.887 183.631C185.223 182.243 185.56 180.855 185.897 179.467C186.056 178.81 186.215 178.153 186.374 177.496C187.272 173.778 188.215 170.078 189.251 166.393C189.788 164.473 190.247 162.537 190.702 160.598C190.869 159.889 191.037 159.18 191.206 158.471C191.312 158.017 191.312 158.017 191.421 157.554C191.695 156.476 192.02 155.411 192.339 154.345Z" fill="black"/>
<path d="M263.084 153.672C264.352 153.676 265.62 153.677 266.888 153.679C269.356 153.682 271.824 153.688 274.292 153.695C273.956 156.462 273.956 156.462 273.582 157.724C273.511 157.966 273.44 158.208 273.367 158.458C273.293 158.702 273.22 158.946 273.144 159.197C273.037 159.561 273.037 159.561 272.929 159.932C272.568 161.15 272.181 162.355 271.755 163.553C271.142 165.284 270.635 167.04 270.126 168.801C269.915 169.528 269.704 170.255 269.492 170.982C269.386 171.35 269.279 171.718 269.169 172.097C268.871 173.118 268.568 174.138 268.262 175.157C267.244 178.566 266.284 181.983 265.4 185.427C264.016 190.809 262.505 196.153 260.948 201.491C260.6 202.684 260.255 203.878 259.91 205.071C259.641 206.004 259.37 206.936 259.099 207.868C258.971 208.309 258.843 208.75 258.715 209.192C258.54 209.798 258.363 210.403 258.186 211.009C258.087 211.352 257.987 211.695 257.884 212.048C257.629 212.819 257.629 212.819 257.289 213.144C256.435 213.181 255.591 213.197 254.737 213.198C254.472 213.2 254.208 213.201 253.935 213.202C253.062 213.205 252.19 213.205 251.317 213.205C251.021 213.205 250.726 213.205 250.421 213.205C244.642 213.205 238.905 212.93 233.145 212.494C233.349 210.517 233.655 208.604 234.09 206.663C234.15 206.388 234.211 206.114 234.273 205.831C234.471 204.93 234.671 204.029 234.872 203.129C235.012 202.494 235.153 201.859 235.293 201.224C235.587 199.894 235.882 198.563 236.178 197.233C236.553 195.548 236.925 193.863 237.297 192.178C237.587 190.865 237.878 189.552 238.169 188.24C238.306 187.62 238.443 187 238.58 186.38C239.36 182.854 240.181 179.341 241.063 175.838C241.554 173.892 242.02 171.943 242.446 169.983C242.509 169.696 242.572 169.409 242.637 169.113C242.767 168.519 242.897 167.925 243.026 167.332C243.22 166.441 243.416 165.55 243.612 164.66C244.387 161.124 245.097 157.582 245.727 154.019C251.511 153.646 257.29 153.655 263.084 153.672Z" fill="black"/>
<path d="M134.19 154.67C143.728 154.67 153.267 154.67 163.094 154.67C163.579 156.061 163.958 157.322 164.266 158.743C164.311 158.951 164.357 159.158 164.403 159.372C164.549 160.038 164.693 160.704 164.837 161.37C165.606 164.921 166.414 168.462 167.242 172.001C168.677 178.134 170.053 184.279 171.405 190.429C171.712 191.826 172.02 193.223 172.329 194.619C172.569 195.71 172.81 196.8 173.05 197.891C173.163 198.407 173.277 198.924 173.391 199.44C173.548 200.15 173.704 200.859 173.86 201.569C173.948 201.971 174.036 202.373 174.128 202.787C174.316 203.724 174.316 203.724 174.316 204.373C171.389 203.848 168.495 203.195 165.602 202.526C165.356 202.469 165.11 202.412 164.857 202.354C160.669 201.383 156.526 200.305 152.406 199.096C151.561 198.859 150.714 198.651 149.859 198.451C149.604 198.387 149.349 198.324 149.087 198.258C148.425 198.094 147.76 197.94 147.094 197.787C145.637 196.972 145.516 195.78 145.071 194.303C144.902 193.744 144.902 193.744 144.729 193.174C144.322 191.816 143.927 190.455 143.532 189.095C143.384 188.588 143.236 188.081 143.088 187.574C142.779 186.513 142.471 185.453 142.163 184.392C141.773 183.049 141.382 181.706 140.989 180.364C140.684 179.317 140.379 178.269 140.075 177.221C139.931 176.727 139.787 176.233 139.642 175.739C138.818 172.917 138.045 170.091 137.362 167.234C136.936 165.456 136.422 163.718 135.847 161.979C134.19 156.928 134.19 156.928 134.19 154.67Z" fill="black"/>
<path d="M154.593 226.139C157.03 226.329 159.254 226.835 161.606 227.458C170.079 229.628 178.735 231.131 187.361 232.626C189.707 233.033 192.043 233.479 194.379 233.935C193.424 238.364 192.397 242.775 191.337 247.182C191.081 248.246 190.826 249.31 190.571 250.374C190.408 251.053 190.245 251.732 190.082 252.412C190.006 252.728 189.93 253.045 189.852 253.371C189.782 253.663 189.711 253.956 189.639 254.257C189.577 254.513 189.515 254.769 189.452 255.033C189.308 255.588 189.127 256.133 188.938 256.675C183.154 256.958 177.387 257.042 171.595 257.021C170.797 257.019 169.999 257.017 169.2 257.016C167.278 257.013 165.356 257.007 163.434 257C162.717 255.235 162.107 253.476 161.58 251.652C161.504 251.391 161.427 251.129 161.349 250.86C161.099 250.005 160.851 249.15 160.603 248.295C160.43 247.697 160.256 247.1 160.082 246.502C159.719 245.254 159.357 244.005 158.995 242.757C158.532 241.156 158.066 239.556 157.599 237.957C157.24 236.725 156.882 235.492 156.525 234.26C156.354 233.67 156.182 233.08 156.01 232.49C155.77 231.667 155.532 230.843 155.295 230.02C155.223 229.776 155.151 229.533 155.078 229.282C154.763 228.18 154.593 227.291 154.593 226.139Z" fill="black"/>
<path d="M214.782 236.534C215.094 236.558 215.094 236.558 215.412 236.581C217.609 236.746 219.805 236.909 222.001 237.072C222.817 237.132 223.633 237.193 224.448 237.254C231.216 237.76 237.964 238.168 244.75 238.341C245.279 238.355 245.808 238.369 246.337 238.384C247.607 238.418 248.878 238.451 250.148 238.483C249.75 239.932 249.352 241.38 248.952 242.828C248.818 243.317 248.683 243.806 248.549 244.295C247.441 248.33 246.26 252.343 245.047 256.351C243.055 256.398 241.062 256.445 239.07 256.489C238.397 256.505 237.725 256.52 237.052 256.537C231.215 256.677 225.382 256.694 219.543 256.675C218.921 254.145 218.301 251.615 217.681 249.085C217.393 247.91 217.105 246.735 216.816 245.561C216.538 244.428 216.26 243.294 215.983 242.161C215.877 241.728 215.771 241.295 215.664 240.862C215.515 240.257 215.367 239.652 215.219 239.047C215.135 238.702 215.05 238.357 214.963 238.002C214.782 237.184 214.782 237.184 214.782 236.534Z" fill="black"/>
</g>
<defs>
<clipPath id="clip0_919_1621">
<rect width="253" height="115" fill="white" transform="translate(74 142)"/>
</clipPath>
</defs>
</svg>
