<svg width="73" height="35" viewBox="0 0 73 35" fill="none" xmlns="http://www.w3.org/2000/svg">
<path d="M11.4359 23.5238C12.3233 24.39 12.7661 25.6757 12.7661 27.3775V34.0462H9.3908V27.8969C9.3908 26.9732 9.18798 26.283 8.78571 25.8296C8.38176 25.3746 7.79696 25.1479 7.03299 25.1479C6.18114 25.1479 5.50337 25.4118 4.9997 25.9379C4.49433 26.4657 4.24249 27.2473 4.24249 28.2877V34.0479H0.867188V22.3989H4.09037V23.7624C4.53658 23.2718 5.09266 22.8928 5.7569 22.6255C6.41945 22.3583 7.14792 22.2246 7.94231 22.2246C9.38404 22.2246 10.5486 22.6577 11.4359 23.5238Z" fill="white"/>
<path d="M27.7584 22.3971V34.0462H24.5352V32.703C23.6986 33.7129 22.4867 34.2188 20.9013 34.2188C19.8044 34.2188 18.814 33.9735 17.9266 33.4829C17.0393 32.9923 16.3429 32.2919 15.8392 31.3818C15.3339 30.4716 15.082 29.4194 15.082 28.22C15.082 27.0206 15.3339 25.9683 15.8392 25.0582C16.3446 24.148 17.0393 23.4494 17.9266 22.9571C18.814 22.4665 19.8044 22.2212 20.9013 22.2212C22.387 22.2212 23.5482 22.6898 24.3848 23.6287V22.3937H27.7601L27.7584 22.3971ZM23.6056 30.5714C24.1685 29.9861 24.4491 29.2045 24.4491 28.2217C24.4491 27.2388 24.1685 26.4572 23.6056 25.8719C23.0428 25.2866 22.3363 24.9956 21.4862 24.9956C20.636 24.9956 19.9075 25.2883 19.3447 25.8719C18.7819 26.4555 18.5013 27.2405 18.5013 28.2217C18.5013 29.2029 18.7819 29.9861 19.3447 30.5714C19.9075 31.1568 20.6208 31.4477 21.4862 31.4477C22.3515 31.4477 23.0445 31.1551 23.6056 30.5714Z" fill="white"/>
<path d="M37.8837 33.4842C37.5524 33.7295 37.1451 33.9139 36.6617 34.0357C36.1783 34.1575 35.678 34.2201 35.1574 34.2201C33.758 34.2201 32.683 33.8665 31.9343 33.1594C31.1838 32.4523 30.8086 31.4136 30.8086 30.0416V19.8203H34.1839V22.6573H37.0606V25.2558H34.1839V29.9976C34.1839 30.4882 34.3056 30.8671 34.5524 31.1344C34.7974 31.4017 35.1507 31.5354 35.6121 31.5354C36.131 31.5354 36.5924 31.3916 36.9964 31.1023L37.8837 33.4842Z" fill="white"/>
<path d="M39.9598 20.2317C39.5711 19.8713 39.375 19.423 39.375 18.8885C39.375 18.3539 39.5694 17.9073 39.9598 17.5453C40.3485 17.1849 40.8539 17.0039 41.4742 17.0039C42.0945 17.0039 42.5999 17.1765 42.9886 17.5233C43.3774 17.8701 43.5734 18.3031 43.5734 18.8225C43.5734 19.3858 43.3791 19.851 42.9886 20.2198C42.5999 20.5886 42.0945 20.7713 41.4742 20.7713C40.8539 20.7713 40.3485 20.5903 39.9598 20.23V20.2317ZM39.7874 22.3971H43.1627V34.0461H39.7874V22.3971Z" fill="white"/>
<path d="M71.0375 23.5238C71.9248 24.39 72.3677 25.6757 72.3677 27.3775V34.0462H68.9924V27.8969C68.9924 26.9732 68.7895 26.283 68.3873 25.8296C67.9833 25.3746 67.3985 25.1479 66.6346 25.1479C65.7827 25.1479 65.1066 25.4118 64.6013 25.9379C64.0959 26.4657 63.8441 27.2473 63.8441 28.2877V34.0479H60.4688V22.3989H63.6919V23.7624C64.1381 23.2718 64.6942 22.8928 65.3585 22.6255C66.021 22.3583 66.7495 22.2246 67.5439 22.2246C68.9856 22.2246 70.1501 22.6577 71.0375 23.5238Z" fill="white"/>
<path d="M3.86142 14.0334C2.99604 13.7813 2.31828 13.4599 1.82812 13.0691L2.6935 11.4231C3.19887 11.7834 3.81071 12.0727 4.53242 12.2892C5.25413 12.5058 5.98261 12.614 6.71784 12.614C8.53479 12.614 9.44411 12.0947 9.44411 11.0543C9.44411 10.7075 9.32073 10.4334 9.07565 10.2321C8.83057 10.0308 8.52465 9.88193 8.15619 9.78889C7.78772 9.69584 7.26546 9.59096 6.58769 9.47423C5.66485 9.33043 4.91103 9.16465 4.32622 8.97687C3.74142 8.78909 3.24112 8.47105 2.82196 8.02444C2.40279 7.57783 2.1949 6.94852 2.1949 6.13988C2.1949 5.10118 2.62758 4.26717 3.49296 3.63954C4.35834 3.01192 5.51949 2.69727 6.97644 2.69727C7.7404 2.69727 8.50436 2.792 9.27002 2.97809C10.034 3.16587 10.661 3.41793 11.1529 3.73597L10.2655 5.382C9.32749 4.77637 8.22379 4.47186 6.95615 4.47186C6.07557 4.47186 5.40625 4.61566 4.94483 4.90494C4.48341 5.19422 4.25185 5.57655 4.25185 6.05191C4.25185 6.42747 4.382 6.72352 4.6406 6.94006C4.90089 7.1566 5.22033 7.31562 5.604 7.41712C5.98599 7.51862 6.52347 7.63366 7.21644 7.76392C8.13928 7.92294 8.88635 8.09211 9.45594 8.27312C10.0255 8.45413 10.5123 8.76033 10.9163 9.19341C11.3202 9.62648 11.5213 10.2321 11.5213 11.012C11.5213 12.0507 11.0785 12.8779 10.1912 13.492C9.30382 14.1061 8.09534 14.4123 6.56741 14.4123C5.62936 14.4123 4.72849 14.2854 3.86311 14.0334H3.86142Z" fill="white"/>
<path d="M33.0831 3.95225C33.9265 4.78964 34.3491 6.03135 34.3491 7.67738V14.2818H32.2718V7.91591C32.2718 6.80446 32.0149 5.96707 31.5045 5.40373C30.9924 4.84039 30.2605 4.55957 29.3089 4.55957C28.256 4.55957 27.4193 4.88776 26.799 5.54414C26.1787 6.20052 25.8694 7.1428 25.8694 8.36929V14.2801H23.7922V7.91422C23.7922 6.80277 23.5353 5.96537 23.0248 5.40204C22.5127 4.8387 21.7808 4.55788 20.8293 4.55788C19.7763 4.55788 18.9396 4.88607 18.3193 5.54245C17.699 6.19883 17.3897 7.14111 17.3897 8.36759V14.2784H15.3125V2.80527H17.3035V4.51559C17.721 3.92349 18.2703 3.4735 18.9481 3.16222C19.6259 2.85264 20.3983 2.697 21.2637 2.697C22.129 2.697 22.9505 2.87802 23.6434 3.23835C24.3364 3.59868 24.8688 4.12649 25.244 4.8184C25.6767 4.15525 26.2784 3.63421 27.0509 3.25865C27.8216 2.88309 28.692 2.69531 29.6571 2.69531C31.0989 2.69531 32.2431 3.11486 33.0865 3.95056L33.0831 3.95225Z" fill="white"/>
<path d="M50.248 2.80531V14.2818H48.257V12.4632C47.7956 13.0993 47.2108 13.5815 46.5043 13.9147C45.7978 14.2463 45.0186 14.4121 44.1684 14.4121C43.058 14.4121 42.0625 14.1668 41.1836 13.6762C40.303 13.1856 39.6151 12.4954 39.1182 11.6089C38.6212 10.7225 38.3711 9.70069 38.3711 8.54526C38.3711 7.38982 38.6196 6.37311 39.1182 5.49173C39.6151 4.61205 40.3047 3.92522 41.1836 3.43462C42.0625 2.94403 43.058 2.69873 44.1684 2.69873C44.9899 2.69873 45.7471 2.85437 46.44 3.16395C47.133 3.47522 47.7094 3.93198 48.1708 4.5393V2.807H50.248V2.80531ZM46.3099 12.0843C46.9015 11.746 47.3629 11.2689 47.6942 10.6548C48.0254 10.0407 48.1911 9.33697 48.1911 8.54357C48.1911 7.75016 48.0254 7.04641 47.6942 6.43232C47.3629 5.81823 46.9015 5.34625 46.3099 5.01467C45.7183 4.6831 45.0625 4.51731 44.3408 4.51731C43.6191 4.51731 42.9447 4.6831 42.3616 5.01467C41.7768 5.34625 41.3154 5.81992 40.9774 6.43232C40.6376 7.04641 40.4686 7.75016 40.4686 8.54357C40.4686 9.33697 40.6376 10.0407 40.9774 10.6548C41.3154 11.2689 41.7785 11.7443 42.3616 12.0843C42.9464 12.4243 43.6056 12.5935 44.3408 12.5935C45.0761 12.5935 45.7183 12.4243 46.3099 12.0843Z" fill="white"/>
<path d="M58.9683 3.21662C59.6748 2.86982 60.5335 2.69727 61.5425 2.69727V4.71039C61.4276 4.69686 61.2687 4.6884 61.0659 4.6884C59.9402 4.6884 59.0579 5.02336 58.4156 5.69496C57.7734 6.36657 57.4522 7.32238 57.4522 8.56409V14.2804H55.375V2.80553H57.366V4.73238C57.7261 4.06924 58.2601 3.56342 58.9666 3.21662H58.9683Z" fill="white"/>
<path d="M71.3196 13.6105C71.0171 13.8711 70.6418 14.069 70.1939 14.206C69.746 14.3431 69.2846 14.4124 68.8097 14.4124C67.6553 14.4124 66.7612 14.1028 66.1274 13.482C65.4918 12.8611 65.1758 11.973 65.1758 10.8192V0.293457H67.253V2.80564H70.5421V4.51595H67.253V10.7313C67.253 11.3521 67.4085 11.8292 67.7178 12.1608C68.0271 12.4923 68.4716 12.6581 69.048 12.6581C69.6818 12.6581 70.2227 12.4771 70.6706 12.1168L71.3196 13.6105Z" fill="white"/>
<path d="M50.9054 28.8002C50.9882 28.922 51.0964 29.0319 51.2198 29.1131C51.2823 29.1571 51.3466 29.1926 51.4159 29.2197C51.7961 29.3872 52.2829 29.3229 52.6041 29.059C52.626 29.0438 52.648 29.0252 52.6683 29.0049C52.7291 28.9507 52.7765 28.8915 52.8255 28.8272C52.839 28.8069 52.8525 28.7866 52.866 28.7663C52.8846 28.7359 52.9015 28.7054 52.9184 28.6733C52.9708 28.5684 53.0097 28.4567 53.0283 28.34C53.0351 28.3146 53.0384 28.2893 53.0401 28.2639C53.0452 28.2233 53.0469 28.1844 53.0469 28.1438V22.5155C53.0469 22.5155 53.0418 22.5155 53.0401 22.5138C53.1331 21.7407 52.3945 21.0809 51.6373 21.2484C51.4632 21.2873 51.306 21.3567 51.1674 21.4632C51.1556 21.4734 51.1437 21.4818 51.1319 21.492C51.1268 21.4954 51.1218 21.5005 51.1167 21.5055C51.1133 21.5072 51.1099 21.5106 51.1066 21.514C51.0558 21.5546 51.0119 21.6036 50.9713 21.6527C50.9612 21.6662 50.9511 21.6798 50.9409 21.6916C50.9358 21.6984 50.9325 21.7035 50.9291 21.7085C50.9274 21.7102 50.9274 21.7119 50.9274 21.7119C50.924 21.7153 50.9223 21.7187 50.9206 21.7221C50.9088 21.7373 50.897 21.7542 50.8868 21.7728C50.8868 21.7745 50.8851 21.7745 50.8834 21.7762C50.8801 21.7847 50.875 21.7931 50.8682 21.8016C50.8682 21.8016 50.8665 21.8067 50.8649 21.8083C50.8598 21.8151 50.8564 21.8219 50.853 21.8286C50.8446 21.8405 50.8395 21.854 50.8327 21.8659C50.8023 21.9268 50.7736 21.9927 50.7533 22.057C50.7465 22.0807 50.7398 22.101 50.733 22.1247C50.733 22.1247 50.7313 22.1348 50.7296 22.1382C50.728 22.1484 50.7246 22.1602 50.7229 22.1704C50.7229 22.1721 50.7212 22.1754 50.7212 22.1771C50.7144 22.2076 50.7111 22.238 50.7077 22.2702C50.706 22.2786 50.7043 22.2854 50.7043 22.2939C50.7009 22.3294 50.6992 22.3649 50.6992 22.4004V28.137C50.6992 28.3806 50.7753 28.6022 50.9054 28.8002ZM50.7144 22.2668C50.711 22.2837 50.7094 22.3006 50.7094 22.3192C50.7094 22.3074 50.7094 22.2956 50.7094 22.2854C50.711 22.2736 50.711 22.2617 50.7144 22.2499C50.7127 22.255 50.7127 22.26 50.7127 22.2668H50.7144Z" fill="white"/>
<path d="M57.693 28.2217C57.693 31.4393 55.0885 34.0479 51.8737 34.0479C45.2228 33.9211 43.869 24.7943 50.0804 22.6797V25.246C47.1125 27.0561 48.3429 31.666 51.8737 31.6965C55.4011 31.6643 56.635 27.0646 53.6721 25.2494V22.6814C56.0062 23.4393 57.693 25.6334 57.693 28.2217Z" fill="white"/>
</svg>
